<svg xmlns="http://www.w3.org/2000/svg" width="262" height="229" viewBox="0 0 262 229">
    <g fill="none" fill-rule="evenodd">
        <path fill="#F9F9F9" d="M67.568 225.117c-5.548-1.165-72.217-11.664-67.31-89.102C5.165 58.577 11.326 35.289 37.245 26.769c25.92-8.52 88.927-48.836 138.369-10.502 49.441 38.334 102.792 72.716 81.62 133.925-21.17 61.208-24.637 81.626-79.875 78.502-55.238-3.125-83.406 1.967-109.79-3.577"/>
        <path fill="#FFF" d="M228.852 70.631c-1.352-.735-2.876-.86-4.356-.515-.892.208-1.753.535-2.626.81-1.664.525-1.808.97-2.486-.513-.74-1.62.167-3.283-1.283-4.973a5.503 5.503 0 0 0-4.153-1.925c-.575 0-1.128.09-1.65.257-1.096-2.646-2.363-5.175-4.452-7.235-4.154-4.094-10.493-5.804-15.91-3.508-2.433 1.03-4.56 2.729-6.272 4.765a21.02 21.02 0 0 0-2.35 3.453c-.606 1.113-.874 2.563-1.604 3.571-1.6-.618-3.078-1.433-4.747-1.905-3.269-.924-6.824-1.105-9.685 1.077-2.35 1.79-3.837 5.027-3.078 8.02.43 1.696 1.215 2.95 2.892 2.975 2.372.034 4.748 0 7.12 0H233s-1.703-3.024-4.148-4.354M160.794 27.158c.782-3.991-.703-8.385-3.743-11.227-3.795-3.548-9.584-5.029-14.533-3.04-2.221.894-4.165 2.366-5.729 4.13a18.18 18.18 0 0 0-2.146 2.995c-.554.964-.799 2.221-1.466 3.095-1.462-.536-2.812-1.242-4.336-1.651-2.986-.802-6.234-.958-8.848.933-2.177 1.575-3.54 4.438-2.782 7.058.268.93.97 2.45 2.042 2.538.31.025.636 0 .948 0h35.998c.542 0 1.084.003 1.625 0 .636-.004.716-.116 1.094-.615a10.2 10.2 0 0 0 1.876-4.216M26.206 63.158c-.782-3.99.703-8.384 3.743-11.227 3.795-3.548 9.584-5.029 14.533-3.04 2.222.894 4.165 2.366 5.729 4.131a18.19 18.19 0 0 1 2.146 2.994c.554.964.8 2.221 1.466 3.095 1.462-.536 2.812-1.242 4.336-1.651 2.986-.802 6.234-.958 8.848.933 2.177 1.575 3.539 4.438 2.782 7.058-.269.93-.97 2.45-2.042 2.538-.311.025-.636 0-.948 0H30.801c-.542 0-1.084.003-1.625 0-.636-.004-.716-.116-1.094-.615a10.195 10.195 0 0 1-1.876-4.216"/>
        <path fill="#E5E5E5" d="M35.727 123.956c10.896-3.45 22.569-4.32 34.016-3.931 8.574.29 17.144 1.293 25.543 2.917 1.464.283 3.52.708 4.682.998.593.148 1.514-.65.73-.847-4.614-1.15-9.363-1.92-14.084-2.563-10.463-1.426-21.147-1.985-31.695-1.116-6.603.544-13.164 1.675-19.445 3.664-.774.245-.537 1.128.253.878"/>
        <path fill="#E5E5E5" d="M90.91 128.89c6.792-4.162 14.55-6.422 22.527-5.78a37.468 37.468 0 0 1 14.014 3.977c.812.416 1.627.856 2.378 1.376.505.35 1.61-.35.985-.782-2.366-1.638-5.157-2.8-7.865-3.7-6.047-2.014-12.519-2.528-18.791-1.378-4.92.902-9.574 2.847-13.835 5.458-.74.454-.063 1.227.588.828M209.935 122.099c7.215-3.023 15.082-3.954 22.711-2.115a36.572 36.572 0 0 1 13.14 6.164c.721.536 1.442 1.092 2.091 1.718.442.424 1.52-.248.97-.778-2.035-1.962-4.554-3.501-7.028-4.804-5.654-2.974-12.025-4.49-18.393-4.261-4.857.174-9.589 1.374-14.07 3.252-.8.335-.097 1.107.58.824"/>
        <path fill="#E5E5E5" d="M138.09 163.995l-19.479-12.16-15.805 6.837c-.247-6.297-2.485-14.9-12.889-14.902-2.144 0-3.845.33-5.186.901-2.391-2.246-5.841-5.29-7.821-6.142-3.264-1.405-10.204-1.287-10.276 3.273-.05 3.258 9.101 5.667 14.267 6.766-.715 1.849-.737 4.017-.436 6.11-11.352-6.275-30.643-15.737-45.341-17.546-.348-2.04-1.353-7.02-3.11-8.603-2.236-2.014-9.905-4.08-14.284-.84-3.251 2.407 5.145 7.221 9.679 9.537-5.849 1.54-2.654 7.446 6.163 13.381-.986-.037-2.117-.1-3.428-.199-9.432-.709-8.108 4.596 1.423 9.658 7.324 3.89 9.681-1.906 10.373-4.704 4.203 2.034 9.007 3.912 14.252 5.426C82.525 168.392 130.848 205 130.848 205L143 200.554s-29.486-22.718-40.644-31.16l.052-3.192 12.84 7.993 22.843-10.2" opacity=".297"/>
        <path fill="#88CA88" d="M166.016 86.459c-2.264-1.04-4.514-1.374-6.715-1.177.587-4.475 1.159-10.615.256-12.811-1.483-3.61-8.87-6.713-15.199-.077-4.53 4.751 1.658 12.68 5.538 16.8-3.306 2.39-6.332 5.593-8.92 8.846-3.133-14.776-10.005-37.703-22.473-47.091 2.42-3.09 8.157-10.685 8.523-13.74.465-3.88-4.463-10.234-13.208-7.579-6.48 1.968-4.61 12.574-3.208 17.936-7.937-.453-12.77 9.461-12.041 22.091a55.073 55.073 0 0 1-3.164-1.885C86.97 62.384 81.046 70.624 83.6 82.414c1.98 9.147 12.332 1.82 16.875-1.924a52.145 52.145 0 0 0 6.987 14.76C124.037 119.496 123.193 201 123.193 201l19.55-.215s.69-51.134.726-69.742l5.953-6.298s34.062-30.268 16.594-38.286"/>
        <path fill="#9DDD92" d="M166.246 87.093c-2.189-1.035-4.363-1.369-6.49-1.172.566-4.458 1.12-10.576.247-12.764-1.434-3.598-8.511-6.292-13.198-.077-3.883 5.148 1.303 11.738 5.055 15.843-3.196 2.382-8.512 6.468-11.013 9.71-3.03-14.722-10.27-37.565-22.322-46.92 2.34-3.077 7.885-10.645 8.24-13.69.448-3.865-4.334-9.735-10.975-7.55-6.236 2.052-4.457 12.528-3.1 17.87-7.448-.437-12.069 10.824-11.69 22.993a.61.61 0 0 1-.923.54 57.305 57.305 0 0 1-2.086-1.312c-8.154-5.368-13.88.753-11.412 12.5 1.728 8.228 9.324 1.859 14.015-2.202a1.21 1.21 0 0 1 1.94.525c1.567 4.663 4.923 10.266 7.708 14.465 16.024 24.157 15.405 105.098 15.405 105.098l17.206.05s.667-50.947.702-69.487l6.053-6.274s33.524-30.156 16.638-38.146"/>
        <path fill="#1D3B48" d="M161.194 113.643c2.482-2.877 4.847-5.876 6.854-9.104 1.743-2.803 3.367-5.916 3.842-9.218.374-2.598-.174-5.23-2.107-7.113-2.617-2.55-6.592-3.473-10.15-3.216l.582.383c.496-3.778 1.202-7.939.549-11.738-.448-2.606-2.79-4.309-5.233-4.983-3.329-.918-6.846.026-9.575 2.041-1.417 1.046-2.814 2.324-3.387 4.03-.5 1.488-.35 3.094.092 4.577 1.178 3.944 4.049 7.354 6.839 10.294l.17-.54c-3.46 2.508-6.424 5.596-9.106 8.9l1.17-.002c-1.457-6.753-3.283-13.44-5.642-19.938-2.438-6.717-5.435-13.375-9.628-19.205-2.13-2.964-4.602-5.689-7.53-7.892l.034.521c2.575-3.248 5.147-6.589 7.19-10.201.71-1.258 1.522-2.69 1.548-4.172.024-1.378-.516-2.727-1.279-3.859-2.225-3.303-6.356-4.592-10.199-4.11-1.865.233-3.82.708-5.234 2.011-1.204 1.11-1.872 2.639-2.216 4.212-.91 4.158 0 8.71 1.063 12.756l.868-.609c-11.217-.464-13.456 14.209-13.014 22.473l1.143-.409c-3.31-1.81-6.604-4.52-10.628-3.358-3.06.885-4.871 3.715-5.654 6.631-.547 2.037-.644 4.17-.49 6.265.146 2.006.38 4.3 1.446 6.062 1.595 2.635 4.762 2.576 7.384 1.706 3.62-1.201 6.854-3.535 9.784-5.908l-1.058-.097a53.059 53.059 0 0 0 4.291 10.256c1.294 2.355 2.912 4.498 4.246 6.825 1.845 3.22 3.216 6.703 4.381 10.215 2.913 8.774 4.597 17.948 5.914 27.077 2.564 17.784 3.604 35.8 3.967 53.752.079 3.885.139 7.773.099 11.659-.004.322.316.386.582.383l19.71-.214c.237-.002.705-.205.71-.495.094-6.938.183-13.876.268-20.814.154-12.55.302-25.102.402-37.653.022-2.857.042-5.714.054-8.57.002-.585.042-1.183.006-1.766-.032-.525-.05-.428.4-.898l2.327-2.43c.546-.57-.688-.725-1.06-.336l-2.024 2.113c-.746.779-.933.966-.936 2.064-.008 2.415-.022 4.83-.04 7.245-.043 6.084-.103 12.169-.167 18.253a14372.766 14372.766 0 0 1-.523 42.904l.71-.495-19.71.214.583.383c.113-10.91-.288-21.844-.917-32.732-.565-9.793-1.39-19.58-2.666-29.307-1.228-9.35-2.814-18.725-5.5-27.781-1.208-4.072-2.65-8.102-4.612-11.88-1.124-2.164-2.553-4.108-3.824-6.185-2.32-3.795-4.11-7.875-5.392-12.127-.123-.41-.81-.298-1.057-.097-2.167 1.756-4.458 3.423-6.96 4.679-2.132 1.07-5.386 2.417-7.44.48-1.196-1.127-1.537-2.861-1.801-4.405-.34-1.982-.457-4.006-.244-6.008.3-2.821 1.326-6.148 3.946-7.675 3.655-2.13 7.429 1.093 10.499 2.772.286.157 1.168.065 1.143-.409-.27-5.054.172-10.41 2.391-15.037 1.694-3.534 4.672-6.622 8.875-6.448.304.013.983-.17.868-.609-1.387-5.277-3.715-15.855 3.75-17.54 3.773-.853 7.908.114 10.238 3.353.765 1.063 1.343 2.397 1.304 3.728-.04 1.366-.816 2.684-1.472 3.844-2 3.537-4.512 6.802-7.034 9.983-.143.18-.16.375.034.521 5.408 4.07 9.24 9.954 12.25 15.91 3.255 6.436 5.671 13.284 7.639 20.207.991 3.487 1.86 7.009 2.625 10.553.102.473.96.255 1.17-.002 2.62-3.229 5.5-6.253 8.88-8.704.146-.106.337-.363.17-.54-2.109-2.221-4.113-4.623-5.566-7.328-1.46-2.72-2.479-6.248-.189-8.821 2.388-2.683 6.124-4.38 9.722-3.466 2.218.564 4.376 2.07 4.819 4.416.704 3.73-.05 7.92-.538 11.637-.041.312.35.4.582.383 3.445-.249 7.553.796 9.775 3.625 1.61 2.05 1.661 4.706 1.086 7.143-1.485 6.295-6.096 11.875-10.232 16.669-.52.6.705.748 1.06.336"/>
        <path fill="#1D3B48" d="M123.172 35.59c.524-2.128 1.772-3.92 3.606-5.093.663-.424-.334-.643-.73-.39-2.027 1.296-3.459 3.257-4.04 5.619-.114.46 1.059.29 1.164-.136M86.873 71.302A18.646 18.646 0 0 0 77.89 69c-.47 0-1.41.756-.524.758 2.97.006 5.808.759 8.451 2.202.36.196 1.575-.375 1.056-.658M118.873 119.302A18.646 18.646 0 0 0 109.89 117c-.47 0-1.41.756-.524.758 2.97.006 5.808.759 8.451 2.202.36.196 1.575-.375 1.056-.658M87.318 75.055a23.976 23.976 0 0 0-10.188 6.477c-.536.575.74.577 1.054.24 2.6-2.787 5.75-4.852 9.315-6.011.77-.251.607-.962-.181-.706M157.53 72.987c2.701-.333 5.154-1.217 7.313-2.64.61-.401-.735-.435-1.09-.201-1.78 1.172-3.817 1.91-6.043 2.184-.658.082-1.115.773-.18.657M112.53 128.987c2.701-.333 5.154-1.217 7.313-2.64.61-.401-.735-.435-1.09-.201-1.78 1.172-3.817 1.91-6.043 2.184-.658.082-1.115.773-.18.657M153.939 72.23c-1.34-2.102-1.76-4.443-1.277-6.834.127-.628-1.349-.448-1.463.115-.517 2.557-.019 5.048 1.41 7.29.307.483 1.697.006 1.33-.57M177.809 92.2c-1.92 1.884-4.439 2.785-7.151 2.944-.7.041-.987.905-.122.854 3.15-.185 6.099-1.282 8.325-3.465.548-.537-.672-.705-1.052-.333M118.272 94.641c2.311-4.911 8.856-7.387 13.596-5.167.303.141 1.468-.36 1.038-.562-5.357-2.508-13.279.38-15.897 5.945-.123.26 1.09.153 1.263-.216M116 85.52a1.5 1.5 0 1 1-3-.04 1.5 1.5 0 0 1 3 .04M128.77 82.297a1.5 1.5 0 1 1-2.54-1.594 1.5 1.5 0 0 1 2.54 1.594"/>
        <path fill="#1D3B48" d="M153.276 115.716L166.725 98.4c1.148-1.479 2.348-2.82 4.25-3.38 2.475-.728 4.818.068 6.788 1.567l9.355 7.12 8.738 6.65c.381.29 1.542-.257 1.004-.666L178.84 95.975c-3.97-3.022-9.435-2.593-12.592 1.405-2.296 2.909-4.546 5.854-6.818 8.78l-7.36 9.476c-.38.49.918.453 1.207.08"/>
        <path fill="#F7786F" d="M202.71 138.347l-50.723 6.64a1.482 1.482 0 0 1-1.661-1.279l-3.313-25.391a1.483 1.483 0 0 1 1.277-1.664l50.723-6.64a1.482 1.482 0 0 1 1.661 1.279l3.313 25.391a1.484 1.484 0 0 1-1.277 1.664"/>
        <path fill="#1D3B48" d="M203.19 138.445l-32.1 4.238-16.595 2.191c-1.213.16-2.546.688-2.92-.961-.502-2.205-.595-4.592-.885-6.832-.781-6.041-1.73-12.085-2.347-18.146-.169-1.654 1.186-1.505 2.335-1.656l6.776-.895 38.917-5.138c.945-.125 2.045-.443 3.002-.396 1.13.056 1.117 1.275 1.225 2.11l.448 3.46 2.54 19.634c.092.716.52 2.148-.57 2.423-.781.197-.57.99.211.793 2.605-.656 1.642-3.48 1.392-5.416l-1.392-10.757-1.273-9.842c-.219-1.686-.385-3.443-2.622-3.239-4.574.419-9.145 1.208-13.699 1.81-7.586 1-15.172 2.002-22.757 3.003-4.559.602-9.16 1.065-13.7 1.81-1.006.164-2.034.699-2.162 1.838-.068.606.122 1.313.198 1.905l1.224 9.459 1.404 10.85c.211 1.631-.014 5.046 2.203 5.286 1.116.12 2.412-.259 3.505-.403l8.128-1.073 38.55-5.09.828-.109c.672-.089 1.008-.972.136-.857"/>
        <path fill="#F9F9F9" d="M103 207c7.99-8.08 48.192-10.335 62-.451L103 207"/>
        <path fill="#1D3B48" d="M104.202 206.817c2.103-1.864 5.184-2.753 7.893-3.462 4.083-1.068 8.3-1.663 12.512-2.042 9.342-.841 19.025-.722 28.243 1.065 4.16.808 8.428 1.962 11.997 4.215.431.272 1.571-.3.993-.666-3.24-2.046-7.058-3.204-10.823-4.026-4.681-1.023-9.483-1.533-14.276-1.754-9.384-.433-19.139.023-28.26 2.29-3.24.806-6.831 1.85-9.334 4.069-.57.504.673.65 1.055.31"/>
        <path fill="#FFF" d="M158.629 135.9l-1.626-11.569a.613.613 0 0 1 .228-.577c.184-.159.412-.258.685-.296l6.346-.892a.607.607 0 0 1 .586.227c.154.184.248.407.285.669.04.285.01.538-.093.758a.613.613 0 0 1-.492.378l-5.045.709.501 3.565 2.71-.38a.628.628 0 0 1 .573.2c.157.166.253.374.288.623.032.226-.002.44-.101.642a.622.622 0 0 1-.505.352l-2.71.381.504 3.583 5.045-.709a.613.613 0 0 1 .577.228c.16.183.259.418.299.703.037.262.007.502-.09.722a.607.607 0 0 1-.5.379l-6.346.892c-.274.038-.52.006-.74-.096a.613.613 0 0 1-.379-.492zm9.566-1.345l-.987-7.023c-.03-.214.05-.4.24-.56.189-.16.45-.264.783-.31.297-.042.553-.011.767.092.214.103.337.261.367.475l.102.731c.132-.443.378-.847.739-1.212.36-.366.773-.582 1.236-.647l.553-.077c.213-.03.42.043.621.221s.32.398.357.659c.038.273-.015.523-.159.75-.144.226-.322.354-.536.384l-.553.077c-.547.077-.99.388-1.332.933-.342.545-.457 1.21-.347 1.994l.448 3.19c.025.178-.07.362-.286.55a1.485 1.485 0 0 1-.787.346c-.321.045-.599.009-.834-.11-.235-.118-.365-.273-.392-.463zm7.017-.986l-.987-7.023c-.03-.214.05-.4.24-.56.189-.16.45-.264.783-.31.297-.042.553-.012.767.092.215.103.337.261.367.475l.103.73c.131-.442.377-.846.738-1.212.36-.365.773-.58 1.236-.646l.553-.078c.214-.03.42.044.622.222.2.178.319.397.356.659.038.273-.015.523-.159.75-.144.225-.322.353-.536.384l-.553.077c-.547.077-.99.388-1.332.933-.342.545-.457 1.21-.347 1.993l.448 3.191c.025.178-.07.361-.286.55a1.485 1.485 0 0 1-.787.346c-.321.045-.599.009-.834-.11-.234-.118-.365-.273-.392-.463zm6.13-3.679l-.206-1.461c-.137-.975.125-1.875.784-2.7.66-.827 1.518-1.314 2.576-1.462 1.034-.146 1.987.084 2.86.688.872.605 1.378 1.4 1.516 2.386l.206 1.462c.135.963-.132 1.867-.8 2.712-.67.845-1.52 1.34-2.555 1.486-1.034.145-1.989-.096-2.864-.725-.876-.628-1.382-1.423-1.517-2.386zm2.3-.323c.06.428.267.786.623 1.076.356.29.747.404 1.175.344.416-.059.758-.277 1.026-.654s.372-.779.312-1.207l-.205-1.461c-.057-.404-.266-.75-.628-1.04-.362-.288-.75-.403-1.166-.344-.428.06-.773.275-1.036.645s-.366.764-.307 1.18l.205 1.461zm7.583 1.752l-.987-7.023c-.03-.214.05-.401.239-.561.19-.16.45-.263.783-.31.297-.042.553-.011.768.092.214.103.336.262.366.476l.103.73c.132-.442.378-.846.739-1.212.36-.366.772-.581 1.236-.646l.552-.078c.214-.03.421.044.622.222.2.177.32.397.356.658.039.274-.014.523-.158.75-.144.226-.323.354-.537.384l-.552.078c-.547.077-.99.387-1.332.932-.342.545-.458 1.21-.347 1.994l.448 3.19c.025.179-.07.362-.286.55a1.485 1.485 0 0 1-.788.347c-.32.045-.598.008-.833-.11-.235-.119-.366-.273-.392-.463z"/>
    </g>
</svg>
