<svg xmlns="http://www.w3.org/2000/svg" width="20" height="20" viewBox="0 0 20 20">
    <g fill="#FFF" fill-rule="evenodd">
        <path d="M19.241 14a4.869 4.869 0 0 0 .49-4.206c-.487-1.403-1.592-2.537-3.029-3.109-.229-2.645-2.559-4.681-5.359-4.683A5.134 5.134 0 0 0 8 3.117l1.118 1.229a3.37 3.37 0 0 1 2.225-.721c2.027 0 3.67 1.557 3.67 3.477v.134l-.025.638.648.174c1.096.296 1.985 1.057 2.406 2.06a3.32 3.32 0 0 1-.256 3.064L19.24 14zM4.915 17H12v-1.601H4.915c-1.852 0-3.354-1.536-3.354-3.431.01-1.504.867-2.866 2.2-3.5L3.138 7C1.23 7.885.005 9.827 0 11.968c0 2.777 2.2 5.03 4.915 5.032zM.301 1.427L1.453.28l18.26 18.197-1.15 1.147z"/>
    </g>
</svg>
